<svg width="123" height="38" viewBox="0 0 123 38" fill="none" xmlns="http://www.w3.org/2000/svg">
<rect x="2.73469" y="16.8995" width="21.4853" height="21.4853" transform="rotate(-45 2.73469 16.8995)" stroke="black"/>
<rect x="3.0194" y="21.5564" width="21.4853" height="21.4853" transform="rotate(-45 3.0194 21.5564)" stroke="black"/>
<rect x="2.70711" y="19.0856" width="21.5243" height="21.5243" transform="rotate(-45 2.70711 19.0856)" stroke="black"/>
<path d="M48.7744 20.3086L50.4971 11.2031H53.125L50.2861 24H47.6318L45.5488 15.4395L43.4658 24H40.8115L37.9727 11.2031H40.6006L42.332 20.291L44.4414 11.2031H46.6738L48.7744 20.3086ZM65.0693 17.8916C65.0693 19.1514 64.8467 20.2559 64.4014 21.2051C63.9561 22.1543 63.3174 22.8867 62.4854 23.4023C61.6592 23.918 60.71 24.1758 59.6377 24.1758C58.5771 24.1758 57.6309 23.9209 56.7988 23.4111C55.9668 22.9014 55.3223 22.1748 54.8652 21.2314C54.4082 20.2822 54.1768 19.1924 54.1709 17.9619V17.3291C54.1709 16.0693 54.3965 14.9619 54.8477 14.0068C55.3047 13.0459 55.9463 12.3105 56.7725 11.8008C57.6045 11.2852 58.5537 11.0273 59.6201 11.0273C60.6865 11.0273 61.6328 11.2852 62.459 11.8008C63.291 12.3105 63.9326 13.0459 64.3838 14.0068C64.8408 14.9619 65.0693 16.0664 65.0693 17.3203V17.8916ZM62.3975 17.3115C62.3975 15.9697 62.1572 14.9502 61.6768 14.2529C61.1963 13.5557 60.5107 13.207 59.6201 13.207C58.7354 13.207 58.0527 13.5527 57.5723 14.2441C57.0918 14.9297 56.8486 15.9375 56.8428 17.2676V17.8916C56.8428 19.1982 57.083 20.2119 57.5635 20.9326C58.0439 21.6533 58.7354 22.0137 59.6377 22.0137C60.5225 22.0137 61.2021 21.668 61.6768 20.9766C62.1514 20.2793 62.3916 19.2656 62.3975 17.9355V17.3115ZM71.7227 19.3154H69.6221V24H66.9854V11.2031H71.7402C73.252 11.2031 74.418 11.54 75.2383 12.2139C76.0586 12.8877 76.4688 13.8398 76.4688 15.0703C76.4688 15.9434 76.2783 16.6729 75.8975 17.2588C75.5225 17.8389 74.9512 18.3018 74.1836 18.6475L76.9521 23.877V24H74.1221L71.7227 19.3154ZM69.6221 17.1797H71.749C72.4111 17.1797 72.9238 17.0127 73.2871 16.6787C73.6504 16.3389 73.832 15.873 73.832 15.2812C73.832 14.6777 73.6592 14.2031 73.3135 13.8574C72.9736 13.5117 72.4492 13.3389 71.7402 13.3389H69.6221V17.1797ZM82.4893 18.8672L81.1182 20.3438V24H78.4814V11.2031H81.1182V17.0039L82.2783 15.4131L85.5391 11.2031H88.7822L84.2383 16.8896L88.9141 24H85.7764L82.4893 18.8672ZM97.6064 18.4541H92.5439V21.8818H98.4854V24H89.9072V11.2031H98.4678V13.3389H92.5439V16.3887H97.6064V18.4541ZM107.731 18.4541H102.669V21.8818H108.61V24H100.032V11.2031H108.593V13.3389H102.669V16.3887H107.731V18.4541ZM119.966 13.3389H116.046V24H113.409V13.3389H109.542V11.2031H119.966V13.3389Z" fill="#2F049A"/>
<path d="M16.123 20.9492L17.0801 15.8906H18.54L16.9629 23H15.4883L14.3311 18.2441L13.1738 23H11.6992L10.1221 15.8906H11.582L12.5439 20.9395L13.7158 15.8906H14.9561L16.123 20.9492ZM21.5625 20.1484L20.8008 20.9688V23H19.3359V15.8906H20.8008V19.1133L21.4453 18.2295L23.2568 15.8906H25.0586L22.5342 19.0498L25.1318 23H23.3887L21.5625 20.1484Z" fill="#2F049A"/>
</svg>
